# Blender v2.79 (sub 0) OBJ File: 'untitled.blend'
# www.blender.org
mtllib 4.mtl
o Text
v 0.058321 0.319192 0.226152
v 0.058321 0.231192 0.226152
v 0.131321 0.231192 0.226152
v 0.131321 0.007192 0.226152
v 0.229321 0.007192 0.226152
v 0.229321 0.231192 0.226152
v 0.518321 0.231192 0.226152
v 0.518321 0.276192 0.226152
v 0.173321 0.698192 0.226152
v 0.131321 0.698192 0.226152
v 0.131321 0.319192 0.226152
v 0.229321 0.319192 0.226152
v 0.229321 0.513192 0.226152
v 0.231321 0.513192 0.226152
v 0.387321 0.319192 0.226152
v 0.058321 0.319192 0.466152
v 0.058321 0.231192 0.466152
v 0.131321 0.231192 0.466152
v 0.131321 0.007192 0.466152
v 0.229321 0.007192 0.466152
v 0.229321 0.231192 0.466152
v 0.518321 0.231192 0.466152
v 0.518321 0.276192 0.466152
v 0.173321 0.698192 0.466152
v 0.131321 0.698192 0.466152
v 0.131321 0.319192 0.466152
v 0.229321 0.319192 0.466152
v 0.229321 0.513192 0.466152
v 0.231321 0.513192 0.466152
v 0.387321 0.319192 0.466152
v 0.058321 0.319192 0.466152
v 0.038321 0.339192 0.446152
v 0.058321 0.231192 0.466152
v 0.038321 0.211192 0.446152
v 0.131321 0.231192 0.466152
v 0.111321 0.211192 0.446152
v 0.131321 0.007192 0.466152
v 0.111321 -0.012808 0.446152
v 0.229321 0.007192 0.466152
v 0.249321 -0.012808 0.446152
v 0.229321 0.231192 0.466152
v 0.249321 0.211192 0.446152
v 0.518321 0.231192 0.466152
v 0.538321 0.211192 0.446152
v 0.518321 0.276192 0.466152
v 0.538321 0.283327 0.446152
v 0.173321 0.698192 0.466152
v 0.182803 0.718192 0.446152
v 0.131321 0.698192 0.466152
v 0.111321 0.718192 0.446152
v 0.131321 0.319192 0.466152
v 0.111321 0.339192 0.446152
v 0.038321 0.339192 0.446152
v 0.038321 0.339192 0.246152
v 0.038321 0.211192 0.446152
v 0.038321 0.211192 0.246152
v 0.111321 0.211192 0.446152
v 0.111321 0.211192 0.246152
v 0.111321 -0.012808 0.446152
v 0.111321 -0.012808 0.246152
v 0.249321 -0.012808 0.446152
v 0.249321 -0.012808 0.246152
v 0.249321 0.211192 0.446152
v 0.249321 0.211192 0.246152
v 0.538321 0.211192 0.446152
v 0.538321 0.211192 0.246152
v 0.538321 0.283327 0.446152
v 0.538321 0.283327 0.246152
v 0.182803 0.718192 0.446152
v 0.182803 0.718192 0.246152
v 0.111321 0.718192 0.446152
v 0.111321 0.718192 0.246152
v 0.111321 0.339192 0.446152
v 0.111321 0.339192 0.246152
v 0.038321 0.339192 0.246152
v 0.058321 0.319192 0.226152
v 0.038321 0.211192 0.246152
v 0.058321 0.231192 0.226152
v 0.111321 0.211192 0.246152
v 0.131321 0.231192 0.226152
v 0.111321 -0.012808 0.246152
v 0.131321 0.007192 0.226152
v 0.249321 -0.012808 0.246152
v 0.229321 0.007192 0.226152
v 0.249321 0.211192 0.246152
v 0.229321 0.231192 0.226152
v 0.538321 0.211192 0.246152
v 0.518321 0.231192 0.226152
v 0.538321 0.283327 0.246152
v 0.518321 0.276192 0.226152
v 0.182803 0.718192 0.246152
v 0.173321 0.698192 0.226152
v 0.111321 0.718192 0.246152
v 0.131321 0.698192 0.226152
v 0.111321 0.339192 0.246152
v 0.131321 0.319192 0.226152
v 0.229321 0.319192 0.466152
v 0.249321 0.339192 0.446152
v 0.229321 0.513192 0.466152
v 0.249321 0.493192 0.446152
v 0.231321 0.513192 0.466152
v 0.221739 0.493192 0.446152
v 0.387321 0.319192 0.466152
v 0.345574 0.339192 0.446152
v 0.249321 0.339192 0.446152
v 0.249321 0.339192 0.246152
v 0.249321 0.493192 0.446152
v 0.249321 0.493192 0.246152
v 0.221739 0.493192 0.446152
v 0.221739 0.493192 0.246152
v 0.345574 0.339192 0.446152
v 0.345574 0.339192 0.246152
v 0.249321 0.339192 0.246152
v 0.229321 0.319192 0.226152
v 0.249321 0.493192 0.246152
v 0.229321 0.513192 0.226152
v 0.221739 0.493192 0.246152
v 0.231321 0.513192 0.226152
v 0.345574 0.339192 0.246152
v 0.387321 0.319192 0.226152
vt 0.500000 0.000000
vt 0.642857 0.000000
vt 0.571429 0.000000
vt 0.928571 0.000000
vt 0.857143 0.000000
vt 0.714286 0.000000
vt 1.000000 0.000000
vt 0.785714 0.000000
vt 0.000000 0.000000
vt 0.071429 0.000000
vt 0.428571 0.000000
vt 0.357143 0.000000
vt 0.285714 0.000000
vt 0.142857 0.000000
vt 0.214286 0.000000
vt 0.642857 0.000000
vt 0.500000 0.000000
vt 0.571429 0.000000
vt 0.928571 0.000000
vt 0.857143 0.000000
vt 0.714286 0.000000
vt 1.000000 0.000000
vt 0.785714 0.000000
vt 0.000000 0.000000
vt 0.071429 0.000000
vt 0.428571 0.000000
vt 0.357143 0.000000
vt 0.142857 0.000000
vt 0.285714 0.000000
vt 0.214286 0.000000
vt 0.000000 1.000000
vt 0.090909 1.000000
vt 0.090909 0.000000
vt 0.000000 0.000000
vt 0.181818 1.000000
vt 0.181818 0.000000
vt 0.272727 1.000000
vt 0.272727 0.000000
vt 0.363636 1.000000
vt 0.363636 0.000000
vt 0.454545 1.000000
vt 0.454545 0.000000
vt 0.545455 1.000000
vt 0.545455 0.000000
vt 0.636364 1.000000
vt 0.636364 0.000000
vt 0.727273 1.000000
vt 0.727273 0.000000
vt 0.818182 1.000000
vt 0.818182 0.000000
vt 0.909091 1.000000
vt 0.909091 0.000000
vt 1.000000 1.000000
vt 1.000000 0.000000
vt 0.000000 1.000000
vt 0.090909 1.000000
vt 0.090909 0.000000
vt 0.000000 0.000000
vt 0.181818 1.000000
vt 0.181818 0.000000
vt 0.272727 1.000000
vt 0.272727 0.000000
vt 0.363636 1.000000
vt 0.363636 0.000000
vt 0.454545 1.000000
vt 0.454545 0.000000
vt 0.545455 1.000000
vt 0.545455 0.000000
vt 0.636364 1.000000
vt 0.636364 0.000000
vt 0.727273 1.000000
vt 0.727273 0.000000
vt 0.818182 1.000000
vt 0.818182 0.000000
vt 0.909091 1.000000
vt 0.909091 0.000000
vt 1.000000 1.000000
vt 1.000000 0.000000
vt 0.000000 1.000000
vt 0.090909 1.000000
vt 0.090909 0.000000
vt 0.000000 0.000000
vt 0.181818 1.000000
vt 0.181818 0.000000
vt 0.272727 1.000000
vt 0.272727 0.000000
vt 0.363636 1.000000
vt 0.363636 0.000000
vt 0.454545 1.000000
vt 0.454545 0.000000
vt 0.545455 1.000000
vt 0.545455 0.000000
vt 0.636364 1.000000
vt 0.636364 0.000000
vt 0.727273 1.000000
vt 0.727273 0.000000
vt 0.818182 1.000000
vt 0.818182 0.000000
vt 0.909091 1.000000
vt 0.909091 0.000000
vt 1.000000 1.000000
vt 1.000000 0.000000
vt 0.000000 1.000000
vt 0.250000 1.000000
vt 0.250000 0.000000
vt 0.000000 0.000000
vt 0.500000 1.000000
vt 0.500000 0.000000
vt 0.750000 1.000000
vt 0.750000 0.000000
vt 1.000000 1.000000
vt 1.000000 0.000000
vt 0.000000 1.000000
vt 0.250000 1.000000
vt 0.250000 0.000000
vt 0.000000 0.000000
vt 0.500000 1.000000
vt 0.500000 0.000000
vt 0.750000 1.000000
vt 0.750000 0.000000
vt 1.000000 1.000000
vt 1.000000 0.000000
vt 0.000000 1.000000
vt 0.250000 1.000000
vt 0.250000 0.000000
vt 0.000000 0.000000
vt 0.500000 1.000000
vt 0.500000 0.000000
vt 0.750000 1.000000
vt 0.750000 0.000000
vt 1.000000 1.000000
vt 1.000000 0.000000
vn 0.0000 0.0000 -1.0000
vn 0.0000 1.0000 0.0000
vn 0.0000 -1.0000 0.0000
vn 0.0000 0.0000 1.0000
vn -0.4082 0.4082 0.8165
vn -0.4082 -0.4082 0.8165
vn 0.4082 -0.4082 0.8165
vn 0.6457 0.2304 0.7279
vn 0.2872 0.6058 0.7420
vn -0.7071 0.7071 0.0000
vn -0.7071 -0.7071 0.0000
vn 0.7071 -0.7071 0.0000
vn 0.9418 0.3360 0.0000
vn 0.4284 0.9036 0.0000
vn -0.4082 0.4082 -0.8165
vn -0.4082 -0.4082 -0.8165
vn 0.4082 -0.4082 -0.8165
vn 0.6457 0.2304 -0.7279
vn 0.2872 0.6058 -0.7420
vn 0.4082 0.4082 0.8165
vn 0.8143 0.3558 0.4585
vn 0.7071 0.7071 0.0000
vn -0.9142 0.0341 0.4039
vn -0.9018 0.4321 0.0000
vn -0.3577 0.1714 0.9180
vn 0.4082 0.4082 -0.8165
vn 0.8143 0.3558 -0.4585
vn -0.9142 0.0341 -0.4039
vn -0.3577 0.1714 -0.9180
usemtl Material.002
s off
f 8/1/1 10/2/1 9/3/1
f 8/1/1 14/4/1 10/2/1
f 14/4/1 13/5/1 10/2/1
f 13/5/1 11/6/1 10/2/1
f 8/1/1 15/7/1 14/4/1
f 12/8/1 11/6/1 13/5/1
f 8/1/1 12/8/1 15/7/1
f 8/1/1 11/6/1 12/8/1
f 8/1/1 1/9/1 11/6/1
f 8/1/1 2/10/1 1/9/1
f 7/11/1 2/10/1 8/1/1
f 6/12/2 2/10/2 7/11/2
f 5/13/1 3/14/1 6/12/1
f 3/14/3 2/10/3 6/12/3
f 5/13/1 4/15/1 3/14/1
f 25/16/4 23/17/4 24/18/4
f 29/19/4 23/17/4 25/16/4
f 28/20/4 29/19/4 25/16/4
f 26/21/4 28/20/4 25/16/4
f 30/22/4 23/17/4 29/19/4
f 26/21/4 27/23/4 28/20/4
f 27/23/4 23/17/4 30/22/4
f 26/21/4 23/17/4 27/23/4
f 16/24/4 23/17/4 26/21/4
f 17/25/4 23/17/4 16/24/4
f 17/25/4 22/26/4 23/17/4
f 17/25/3 21/27/3 22/26/3
f 18/28/4 20/29/4 21/27/4
f 17/25/2 18/28/2 21/27/2
f 19/30/4 20/29/4 18/28/4
s 1
f 32/31/5 34/32/6 33/33/6 31/34/5
f 34/32/6 36/35/6 35/36/6 33/33/6
f 36/35/6 38/37/6 37/38/6 35/36/6
f 38/37/6 40/39/7 39/40/7 37/38/6
f 40/39/7 42/41/7 41/42/7 39/40/7
f 42/41/7 44/43/7 43/44/7 41/42/7
f 44/43/7 46/45/8 45/46/8 43/44/7
f 46/45/8 48/47/9 47/48/9 45/46/8
f 48/47/9 50/49/5 49/50/5 47/48/9
f 50/49/5 52/51/5 51/52/5 49/50/5
f 52/51/5 32/53/5 31/54/5 51/52/5
f 54/55/10 56/56/11 55/57/11 53/58/10
f 56/56/11 58/59/11 57/60/11 55/57/11
f 58/59/11 60/61/11 59/62/11 57/60/11
f 60/61/11 62/63/12 61/64/12 59/62/11
f 62/63/12 64/65/12 63/66/12 61/64/12
f 64/65/12 66/67/12 65/68/12 63/66/12
f 66/67/12 68/69/13 67/70/13 65/68/12
f 68/69/13 70/71/14 69/72/14 67/70/13
f 70/71/14 72/73/10 71/74/10 69/72/14
f 72/73/10 74/75/10 73/76/10 71/74/10
f 74/75/10 54/77/10 53/78/10 73/76/10
f 76/79/15 78/80/16 77/81/16 75/82/15
f 78/80/16 80/83/16 79/84/16 77/81/16
f 80/83/16 82/85/16 81/86/16 79/84/16
f 82/85/16 84/87/17 83/88/17 81/86/16
f 84/87/17 86/89/17 85/90/17 83/88/17
f 86/89/17 88/91/17 87/92/17 85/90/17
f 88/91/17 90/93/18 89/94/18 87/92/17
f 90/93/18 92/95/19 91/96/19 89/94/18
f 92/95/19 94/97/15 93/98/15 91/96/19
f 94/97/15 96/99/15 95/100/15 93/98/15
f 96/99/15 76/101/15 75/102/15 95/100/15
f 98/103/20 100/104/21 99/105/22 97/106/20
f 100/104/21 102/107/23 101/108/24 99/105/22
f 102/107/23 104/109/25 103/110/25 101/108/24
f 104/109/25 98/111/20 97/112/20 103/110/25
f 106/113/22 108/114/22 107/115/22 105/116/22
f 108/114/22 110/117/24 109/118/24 107/115/22
f 110/117/24 112/119/24 111/120/24 109/118/24
f 112/119/24 106/121/22 105/122/22 111/120/24
f 114/123/26 116/124/22 115/125/27 113/126/26
f 116/124/22 118/127/24 117/128/28 115/125/27
f 118/127/24 120/129/29 119/130/29 117/128/28
f 120/129/29 114/131/26 113/132/26 119/130/29
